<?xml version="1.0" encoding="utf-8"?>
<svg version="1.0" width="290.000000pt" height="174.000000pt" viewBox="0 0 290.000000 174.000000" preserveAspectRatio="xMidYMid meet" xmlns="http://www.w3.org/2000/svg">
  <g transform="translate(0.000000,174.000000) scale(0.100000,-0.100000)" fill="#000000" stroke="none">
    <path d="M842 1625 c0 -22 2 -32 5 -22 2 9 7 17 10 17 4 0 15 -8 26 -17 19 -18 20 -17 8 5 -7 13 -10 31 -6 40 5 13 3 13 -14 -2 -18 -17 -19 -17 -24 1 -3 10 -5 0 -5 -22z"/>
    <path d="M922 1632 c-9 -27 -8 -29 14 -24 15 3 24 0 24 -9 0 -7 2 -10 5 -7 7 7 -15 68 -25 68 -4 0 -12 -13 -18 -28z m23 -2 c3 -5 1 -10 -4 -10 -6 0 -11 5 -11 10 0 6 2 10 4 10 3 0 8 -4 11 -10z"/>
    <path d="M1050 1630 c-7 -17 -10 -33 -6 -37 3 -3 6 -1 6 5 0 16 37 15 44 0 3 -7 3 -2 0 12 -3 14 -12 31 -19 38 -10 11 -14 8 -25 -18z m25 0 c3 -5 1 -10 -4 -10 -6 0 -11 5 -11 10 0 6 2 10 4 10 3 0 8 -4 11 -10z"/>
    <path d="M1112 1628 c2 -25 8 -33 23 -33 15 0 21 8 23 33 3 29 1 32 -23 32 -24 0 -26 -3 -23 -32z m36 -3 c0 -15 -6 -25 -14 -25 -8 0 -14 10 -14 25 0 15 6 25 14 25 8 0 14 -10 14 -25z"/>
    <path d="M1183 1630 c2 -28 6 -35 22 -35 15 0 20 7 21 30 1 30 1 30 -3 2 -5 -35 -26 -30 -35 9 -6 27 -6 27 -5 -6z"/>
    <path d="M1251 1623 c1 -21 3 -30 6 -20 5 19 14 22 29 8 5 -6 10 1 11 20 2 25 -1 29 -22 29 -22 0 -25 -4 -24 -37z m39 17 c0 -5 -7 -10 -15 -10 -8 0 -15 5 -15 10 0 6 7 10 15 10 8 0 15 -4 15 -10z"/>
    <path d="M1323 1644 c-3 -9 -2 -24 4 -33 14 -21 47 -20 51 2 2 11 -3 17 -15 17 -14 0 -15 -2 -4 -9 9 -6 10 -11 2 -15 -16 -10 -31 2 -31 26 0 16 5 19 25 16 13 -3 22 -1 19 3 -9 15 -44 10 -51 -7z"/>
    <path d="M1402 1630 c0 -19 2 -27 5 -17 2 9 2 25 0 35 -3 9 -5 1 -5 -18z"/>
    <path d="M1450 1631 c0 -16 4 -32 8 -35 5 -3 6 8 4 25 -3 23 0 29 13 29 14 0 16 -6 11 -32 -5 -24 -3 -29 5 -21 18 18 7 58 -18 61 -20 3 -23 -1 -23 -27z"/>
    <path d="M1523 1625 c0 -22 2 -30 4 -17 2 12 2 30 0 40 -3 9 -5 -1 -4 -23z"/>
    <path d="M1550 1656 c0 -2 9 -6 20 -9 11 -3 20 -1 20 4 0 5 -9 9 -20 9 -11 0 -20 -2 -20 -4z"/>
    <path d="M1617 1652 c6 -4 13 -21 16 -37 l4 -30 2 32 c0 17 7 34 14 36 6 3 -1 6 -18 6 -16 0 -25 -3 -18 -7z"/>
    <path d="M1671 1623 c1 -21 3 -30 6 -20 5 19 14 22 29 8 5 -6 10 1 11 20 2 25 -1 29 -22 29 -22 0 -25 -4 -24 -37z m39 17 c0 -5 -7 -10 -15 -10 -8 0 -15 5 -15 10 0 6 7 10 15 10 8 0 15 -4 15 -10z"/>
    <path d="M1743 1625 c0 -22 2 -30 4 -17 2 12 2 30 0 40 -3 9 -5 -1 -4 -23z"/>
    <path d="M1772 1648 c-13 -17 3 -58 22 -58 8 0 17 4 20 9 4 5 -3 7 -14 4 -16 -4 -20 0 -20 22 0 22 4 26 20 22 11 -3 18 -1 14 4 -8 13 -30 11 -42 -3z"/>
    <path d="M1837 1652 c6 -4 13 -21 16 -37 l4 -30 2 32 c0 17 7 34 14 36 6 3 -1 6 -18 6 -16 0 -25 -3 -18 -7z"/>
    <path d="M1921 1623 c1 -37 2 -37 8 -8 l7 30 8 -30 8 -30 14 34 c8 19 12 36 9 39 -2 3 -9 -6 -13 -19 l-9 -24 -7 23 c-11 35 -26 26 -25 -15z"/>
    <path d="M2011 1628 c-6 -17 -9 -34 -6 -36 3 -3 5 0 5 6 0 7 9 12 20 12 11 0 20 -5 20 -12 0 -6 2 -9 5 -6 11 10 -7 37 -21 31 -8 -3 -14 0 -14 6 0 6 5 11 10 11 6 0 10 5 10 10 0 22 -19 8 -29 -22z"/>
    <path d="M2071 1623 c1 -21 3 -31 6 -22 2 10 13 19 24 22 29 8 24 37 -6 37 -22 0 -25 -4 -24 -37z m39 17 c0 -5 -7 -10 -15 -10 -8 0 -15 5 -15 10 0 6 7 10 15 10 8 0 15 -4 15 -10z"/>
    <path d="M1560 1630 c8 -5 20 -10 25 -10 6 0 3 5 -5 10 -8 5 -19 10 -25 10 -5 0 -3 -5 5 -10z"/>
    <path d="M1550 1598 c0 -4 9 -8 20 -8 11 0 20 4 20 8 0 4 -9 8 -20 8 -11 0 -20 -4 -20 -8z"/>
    <path d="M998 1593 c6 -2 18 -2 25 0 6 3 1 5 -13 5 -14 0 -19 -2 -12 -5z"/>
    <path d="M2610 1587 c0 -8 38 -47 45 -47 3 0 4 12 4 28 -1 18 -3 21 -6 9 -5 -18 -6 -18 -24 -1 -10 9 -19 14 -19 11z"/>
    <path d="M1462 675 c0 -34 1 -36 8 -15 l7 25 11 -25 11 -25 0 28 c1 17 -4 27 -13 27 -8 0 -17 6 -19 13 -3 6 -5 -6 -5 -28z"/>
    <path d="M1518 686 c-3 -14 -1 -31 3 -38 6 -8 9 1 9 25 0 42 -6 48 -12 13z"/>
    <path d="M1540 676 c0 -13 5 -28 10 -31 6 -3 10 3 10 14 0 12 0 24 1 28 0 4 -4 9 -10 11 -6 2 -11 -8 -11 -22z"/>
    <path d="M1580 681 c0 -5 -3 -16 -6 -25 -5 -12 0 -16 20 -16 27 0 31 7 20 34 -7 17 -34 22 -34 7z"/>
    <path d="M1630 653 c0 -21 4 -33 8 -27 4 6 15 13 25 17 25 9 17 41 -11 45 -19 3 -22 -1 -22 -35z m26 0 c-10 -10 -19 5 -10 18 6 11 8 11 12 0 2 -7 1 -15 -2 -18z"/>
    <path d="M1691 668 c-1 -22 4 -28 19 -28 15 0 20 6 19 28 -2 23 -2 24 -6 5 -2 -13 -8 -23 -13 -23 -5 0 -11 10 -13 23 -4 19 -4 18 -6 -5z"/>
    <path d="M616 935 c-3 -8 -2 -25 3 -37 7 -20 9 -18 13 15 4 37 -5 50 -16 22z"/>
    <path d="M552 915 c-16 -34 -16 -32 18 -31 16 1 30 2 30 3 0 9 -25 53 -30 53 -4 0 -12 -11 -18 -25z m28 -5 c0 -5 -4 -10 -10 -10 -5 0 -10 5 -10 10 0 6 5 10 10 10 6 0 10 -4 10 -10z"/>
    <path d="M752 910 c0 -19 2 -27 5 -17 2 9 2 25 0 35 -3 9 -5 1 -5 -18z"/>
    <path d="M655 919 c4 -5 1 -16 -5 -24 -10 -13 -8 -15 11 -14 13 0 18 3 11 6 -9 4 -10 9 -2 18 8 9 6 14 -5 19 -10 3 -13 2 -10 -5z"/>
    <path d="M700 919 c-13 -9 -12 -10 3 -5 12 4 17 0 18 -17 1 -18 2 -19 6 -3 6 24 -8 38 -27 25z"/>
    <path d="M805 911 c4 -12 2 -21 -4 -21 -6 0 -11 7 -11 15 0 8 -4 15 -8 15 -4 0 -8 -13 -7 -30 0 -16 3 -30 7 -30 5 0 8 5 8 10 0 6 7 10 15 10 17 0 20 35 4 46 -8 4 -9 0 -4 -15z"/>
    <path d="M837 905 c-4 -8 -2 -17 3 -20 6 -4 10 3 10 14 0 25 -6 27 -13 6z"/>
    <path d="M867 900 c-3 -11 -1 -20 4 -20 5 0 9 9 9 20 0 11 -2 20 -4 20 -2 0 -6 -9 -9 -20z"/>
    <path d="M890 898 c0 -12 1 -19 3 -17 1 2 9 12 16 22 12 14 11 17 -3 17 -10 0 -16 -8 -16 -22z"/>
    <path d="M690 890 c0 -5 5 -10 10 -10 6 0 10 5 10 10 0 6 -4 10 -10 10 -5 0 -10 -4 -10 -10z"/>
    <path d="M1864 598 c-4 -6 3 -20 17 -31 l24 -20 -30 7 c-27 7 -29 6 -14 -9 22 -23 49 -9 47 23 -3 37 -29 55 -44 30z m31 -8 c3 -5 -1 -10 -9 -10 -9 0 -16 5 -16 10 0 6 4 10 9 10 6 0 13 -4 16 -10z"/>
    <path d="M2011 592 c0 -7 -5 -11 -10 -7 -16 9 -33 -31 -18 -43 20 -17 39 2 34 34 -2 16 -5 23 -6 16z m-1 -33 c0 -5 -4 -9 -10 -9 -5 0 -10 7 -10 16 0 8 5 12 10 9 6 -3 10 -10 10 -16z"/>
    <path d="M1927 584 c-4 -4 -7 -15 -7 -25 0 -19 26 -33 35 -18 4 5 2 8 -3 7 -10 -3 -12 1 -12 25 0 8 4 7 11 -3 9 -12 10 -12 7 -1 -5 17 -21 25 -31 15z"/>
    <path d="M2044 578 c-4 -7 -3 -8 4 -4 8 5 12 0 12 -13 0 -12 5 -21 10 -21 6 0 10 9 10 19 0 22 -26 35 -36 19z"/>
    <path d="M2102 582 c-7 -2 -12 -13 -11 -25 0 -21 1 -20 11 3 l11 25 6 -25 7 -25 8 25 8 25 8 -25 9 -25 -2 24 c-2 24 -25 33 -55 23z"/>
    <path d="M2035 550 c-3 -5 -1 -10 4 -10 6 0 11 5 11 10 0 6 -2 10 -4 10 -3 0 -8 -4 -11 -10z"/>
    <path d="M2628 1513 c-2 -4 -1 -53 2 -108 l6 -100 2 92 c1 56 6 93 13 95 7 2 6 8 -4 16 -8 7 -17 9 -19 5z"/>
    <path d="M2274 1291 c9 -10 25 -17 35 -14 11 3 24 -5 35 -21 11 -18 25 -26 45 -26 31 0 57 -23 46 -40 -4 -6 -17 -15 -30 -20 -24 -9 -54 -50 -36 -50 5 0 11 6 14 14 3 8 18 20 34 28 16 7 29 23 31 36 3 18 -4 26 -33 38 -20 8 -40 12 -44 10 -4 -3 -13 6 -19 19 -8 17 -20 25 -36 25 -14 0 -28 5 -31 10 -3 6 -11 10 -17 10 -6 0 -3 -9 6 -19z"/>
    <path d="M857 1253 c-2 -10 -8 -25 -11 -33 -5 -13 2 -16 39 -16 44 0 45 1 45 33 0 18 -4 33 -9 33 -5 0 -8 -11 -5 -24 6 -36 -12 -40 -26 -6 -14 34 -25 38 -33 13z"/>
    <path d="M1090 1260 c0 -5 -6 -10 -14 -10 -16 0 -29 -27 -20 -41 3 -5 14 -9 25 -9 15 0 19 7 19 35 0 19 -2 35 -5 35 -3 0 -5 -4 -5 -10z m0 -41 c0 -5 -4 -9 -10 -9 -5 0 -10 7 -10 16 0 8 5 12 10 9 6 -3 10 -10 10 -16z"/>
    <path d="M949 1248 c-10 -35 -7 -48 11 -48 15 0 20 7 20 25 0 16 -6 25 -15 25 -8 0 -15 -1 -16 -2z"/>
    <path d="M995 1225 c0 -14 3 -25 8 -25 4 0 7 9 7 20 0 27 18 25 23 -2 4 -20 4 -19 6 5 1 22 -3 27 -21 27 -18 0 -23 -6 -23 -25z"/>
    <path d="M1774 1186 c-15 -39 22 -74 49 -47 9 9 5 11 -13 9 -19 -2 -25 2 -25 17 0 15 6 19 23 18 13 -2 21 1 17 7 -9 15 -45 12 -51 -4z"/>
    <path d="M1842 1165 c0 -23 3 -30 5 -17 5 28 23 29 23 1 0 -11 5 -17 10 -14 16 10 12 35 -7 42 -10 4 -21 11 -25 17 -4 6 -7 -7 -6 -29z"/>
    <path d="M1903 1165 c0 -22 2 -30 4 -17 2 12 2 30 0 40 -3 9 -5 -1 -4 -23z"/>
    <path d="M2042 1165 c0 -22 3 -30 5 -17 2 12 8 22 13 22 5 0 11 -10 13 -22 4 -20 4 -19 6 5 1 17 -4 27 -13 27 -8 0 -17 6 -19 13 -3 6 -5 -6 -5 -28z"/>
    <path d="M2163 1165 c0 -22 2 -30 4 -17 2 12 2 30 0 40 -3 9 -5 -1 -4 -23z"/>
    <path d="M1931 1153 c2 -24 2 -25 6 -5 2 12 8 22 13 22 5 0 11 -10 13 -22 4 -20 4 -19 6 5 1 21 -4 27 -19 27 -15 0 -20 -6 -19 -27z"/>
    <path d="M1984 1165 c-11 -28 25 -50 41 -25 3 6 -1 7 -9 4 -10 -4 -16 -1 -16 9 0 8 6 18 13 20 7 3 5 6 -6 6 -10 1 -20 -6 -23 -14z"/>
    <path d="M2100 1161 c0 -26 17 -36 35 -21 18 15 8 40 -16 40 -12 0 -19 -7 -19 -19z m30 -6 c0 -8 -4 -15 -10 -15 -5 0 -10 7 -10 15 0 8 5 15 10 15 6 0 10 -7 10 -15z"/>
    <path d="M2192 1160 c0 -14 2 -19 5 -12 2 6 2 18 0 25 -3 6 -5 1 -5 -13z"/>
    <path d="M1207 993 c-4 -3 -7 -13 -7 -22 1 -13 3 -13 11 2 11 19 8 33 -4 20z"/>
    <path d="M1344 985 c-3 -8 -4 -20 -2 -27 3 -7 7 -1 10 15 6 29 1 36 -8 12z"/>
    <path d="M1140 968 c0 -19 2 -20 10 -8 9 13 11 13 20 0 5 -8 10 -10 10 -5 0 14 -13 30 -27 33 -8 1 -13 -8 -13 -20z"/>
    <path d="M1295 979 c-4 -6 -4 -13 -1 -16 3 -4 6 0 6 7 0 9 5 7 16 -6 14 -18 15 -18 4 4 -12 25 -16 27 -25 11z"/>
    <path d="M1542 970 c0 -14 2 -19 5 -12 2 6 2 18 0 25 -3 6 -5 1 -5 -13z"/>
    <path d="M961 481 c-1 -25 -5 -32 -16 -27 -8 3 -15 1 -15 -4 0 -15 30 -12 36 4 3 8 4 25 1 38 -3 17 -5 14 -6 -11z"/>
    <path d="M990 464 c0 -33 33 -30 38 4 3 17 -2 22 -17 22 -16 0 -21 -6 -21 -26z"/>
    <path d="M1040 484 c0 -6 6 -18 13 -28 12 -17 14 -16 25 8 7 16 8 26 2 26 -6 0 -10 -8 -10 -17 -1 -16 -2 -16 -15 1 -8 11 -15 15 -15 10z"/>
    <path d="M1108 482 c11 -7 10 -10 -3 -16 -21 -8 -10 -26 16 -26 28 0 22 44 -6 48 -15 2 -16 1 -7 -6z"/>
    <path d="M1151 463 c1 -22 2 -23 6 -8 3 11 10 23 17 27 7 5 5 8 -6 8 -13 0 -18 -7 -17 -27z"/>
    <path d="M1192 455 c1 -27 6 -35 20 -35 14 0 18 8 18 35 0 28 -4 35 -20 35 -16 0 -19 -6 -18 -35z m28 10 c0 -8 -4 -15 -10 -15 -5 0 -10 7 -10 15 0 8 5 15 10 15 6 0 10 -7 10 -15z"/>
    <path d="M1252 465 c0 -16 2 -22 5 -12 2 9 2 23 0 30 -3 6 -5 -1 -5 -18z"/>
  </g>
  <g>
    <g>
      <path style="fill: rgb(216, 216, 216); stroke: rgb(0, 0, 0);" d="M 111.709 71.925 L 116.148 61.937 L 125.395 59.348 L 127.245 55.279 L 132.054 55.279 L 138.342 48.621 L 145.74 43.442 L 146.11 36.044 L 130.204 31.606 C 130.204 31.606 115.408 31.236 115.038 30.866 C 114.668 30.496 103.202 16.81 103.202 16.81 L 99.872 21.618 L 95.064 20.139 L 90.255 24.578 L 81.378 30.496 L 79.898 34.565 L 68.431 36.784 L 66.582 43.442 L 71.39 47.881 L 66.952 57.499 C 66.952 57.499 69.171 60.458 69.541 60.828 C 69.911 61.198 75.459 70.445 75.459 70.445 L 83.597 71.925 L 90.625 75.624 L 111.709 71.925 Z"/>
    </g>
    <path style="fill: rgb(216, 216, 216); stroke: rgb(0, 0, 0);" d="M 71.39 73.034 L 112.079 73.774 L 108.01 80.432 L 114.298 84.131 L 112.079 89.68 C 112.079 89.68 112.079 92.639 111.709 93.009 C 111.339 93.379 105.421 94.488 105.421 94.488 L 102.092 100.777 L 93.584 97.447 C 93.584 97.447 77.309 105.215 76.939 105.215 C 76.569 105.215 71.39 102.626 71.39 102.626 L 71.39 97.078 L 56.594 99.297 L 40.689 85.241 L 35.14 84.501 L 31.811 73.034 L 38.469 68.965 L 45.867 70.075 L 55.115 66.746 L 63.992 70.445 L 66.212 70.445 L 71.39 73.034 Z"/>
  </g>
  <path style="fill: rgb(216, 216, 216); stroke: rgb(0, 0, 0);" d="M 109.86 78.953 L 115.408 68.596 L 115.038 63.787 L 125.026 60.458 L 126.135 54.539 L 131.314 55.279 L 145 43.442 L 146.48 36.414 L 148.329 29.016 L 163.865 30.126 L 169.783 27.907 L 174.592 43.073 C 174.592 43.073 166.824 44.922 166.454 45.292 C 166.084 45.662 162.755 53.06 162.755 53.06 L 151.288 64.897 L 159.796 77.473 L 143.151 90.419 L 138.342 87.09 L 135.383 91.529 L 140.561 97.078 L 135.383 112.983 L 123.916 108.175 L 123.916 98.927 C 123.916 98.927 118.737 98.927 119.107 98.557 C 119.477 98.187 112.079 108.914 112.079 108.914 L 107.27 106.325 C 107.27 106.325 102.832 108.914 102.092 108.914 C 101.352 108.914 92.105 105.585 92.105 105.585 L 95.434 99.297 L 103.571 99.297 L 112.819 90.05"/>
  <g>
    <g>
      <g>
        <g>
          <path style="fill: rgb(216, 216, 216); stroke: rgb(0, 0, 0);" d="M 175.332 34.77 L 183.099 34.77 L 191.607 39.949 L 195.306 39.209 L 200.115 41.798 L 210.842 43.648 L 217.13 46.977 L 228.597 44.388 L 244.503 52.156 L 234.515 62.513 L 223.048 68.431 L 223.048 72.5 L 215.651 73.98 L 214.911 84.337 L 210.102 86.556 L 207.143 91.365 L 199.375 87.296 L 186.059 86.926 L 184.209 74.719 L 177.921 72.5 C 177.921 72.5 176.811 68.061 176.441 67.691 C 176.071 67.321 169.783 68.061 169.783 68.061 L 164.974 61.033 L 166.824 53.635 L 164.974 51.046 L 164.974 46.607 L 173.852 44.758 L 175.332 34.77 Z"/>
        </g>
        <path style="fill: rgb(216, 216, 216); stroke: rgb(0, 0, 0);" d="M 205.293 95.434 L 215.281 106.901 L 222.679 117.258 C 222.679 117.258 220.089 121.327 219.719 121.696 C 219.349 122.065 219.719 127.615 219.719 127.615 L 217.5 133.163 L 215.281 138.342 L 196.786 128.724 L 191.237 129.094 L 181.62 123.546 L 182.73 118.737 L 179.77 115.038 L 180.88 108.38 L 173.482 100.242 C 173.482 100.242 173.112 83.967 182.73 86.186 C 192.348 88.405 201.964 86.926 201.964 86.926 L 205.293 95.434 Z"/>
      </g>
      <path style="fill: rgb(216, 216, 216); stroke: rgb(0, 0, 0);" d="M 178.291 126.135 L 166.824 132.793 L 159.796 129.464 L 152.768 138.342 L 150.548 142.041 L 137.972 139.821 L 146.11 132.793 L 143.89 126.875 L 147.219 121.696 L 138.342 110.599 L 140.561 97.283 L 136.492 90.625 C 136.492 90.625 137.232 87.296 137.972 87.296 C 138.712 87.296 145.74 92.105 145.74 92.105 L 161.276 78.048 L 152.028 65.842 L 163.495 53.265 L 164.235 61.773 L 167.194 69.171 L 173.482 69.541 L 176.441 75.089 L 182.36 76.199 L 182.36 81.747 L 172.003 86.186 L 172.003 95.064 L 171.633 104.681 L 177.551 108.38 L 176.441 115.408 L 179.77 118.737 L 178.291 126.135 Z"/>
    </g>
    <path style="fill: rgb(216, 216, 216); stroke: rgb(0, 0, 0);" d="M 78.048 108.38 L 92.844 99.133 L 90.625 107.27 L 98.023 110.599 L 106.531 109.12 L 112.079 113.189 L 119.477 101.722 L 122.066 102.092 L 121.327 110.599 L 130.574 115.408 L 137.972 113.929 L 144.26 120.957 L 141.671 127.985 L 143.52 132.054 L 136.862 135.383 C 136.862 135.383 130.944 145 130.574 145.37 C 130.204 145.74 123.546 146.48 123.546 146.48 L 122.066 152.768 L 116.148 151.658 L 113.929 158.316 L 108.01 155.727 C 108.01 155.727 104.311 156.097 103.941 156.467 C 103.571 156.837 99.872 161.276 98.763 161.276 C 97.654 161.276 89.885 159.056 89.885 159.056 L 83.227 163.865 L 79.158 151.288 L 71.02 149.069 L 71.39 143.89 C 71.39 143.89 66.952 138.712 67.321 138.342 C 67.69 137.972 81.378 137.232 81.378 137.232 L 81.747 126.875 L 75.459 125.765 L 78.048 108.38 Z"/>
  </g>
</svg>